<svg id="visual" viewBox="0 0 540 960" width="540" height="960" xmlns="http://www.w3.org/2000/svg" xmlns:xlink="http://www.w3.org/1999/xlink" version="1.1"><rect x="0" y="0" width="540" height="960" fill="#fff"></rect><defs><linearGradient id="grad1_0" x1="0%" y1="0%" x2="100%" y2="100%"><stop offset="30%" stop-color="#ffffff" stop-opacity="1"></stop><stop offset="70%" stop-color="#ffffff" stop-opacity="1"></stop></linearGradient></defs><defs><linearGradient id="grad2_0" x1="0%" y1="0%" x2="100%" y2="100%"><stop offset="30%" stop-color="#ffffff" stop-opacity="1"></stop><stop offset="70%" stop-color="#ffffff" stop-opacity="1"></stop></linearGradient></defs><g transform="translate(540, 0)"><path d="M0 270C-39.1 249.3 -78.2 228.6 -120.5 208.7C-162.8 188.8 -208.4 169.7 -233.8 135C-259.3 100.3 -264.6 50.2 -270 0L0 0Z" fill="#0088cc"></path></g><g transform="translate(0, 960)"><path d="M0 -270C43.4 -256.7 86.7 -243.4 128.5 -222.6C170.3 -201.7 210.5 -173.4 233.8 -135C257.1 -96.6 263.6 -48.3 270 0L0 0Z" fill="#0088cc"></path></g></svg>